<svg width="18" height="18" viewBox="0 0 18 18" fill="none" xmlns="http://www.w3.org/2000/svg">
<rect x="0.59375" y="8.85376" width="14" height="8" fill="#77A4CC"/>
<rect x="6.59375" y="0.85376" width="2" height="8" fill="#77A4CC"/>
<rect x="5.59375" y="2.85376" width="2" height="8" fill="#77A4CC"/>
<rect x="4.59375" y="6.85376" width="2" height="8" fill="#77A4CC"/>
<rect x="7.59375" y="5.85376" width="8" height="7" fill="#77A4CC"/>
<path d="M16.6268 9.31994C16.9877 8.84299 17.1875 8.25861 17.1875 7.6506C17.1875 6.68595 16.6482 5.77287 15.7803 5.26369C15.5568 5.13262 15.3024 5.06364 15.0434 5.06388H9.89141L10.0203 2.42345C10.0504 1.78537 9.82481 1.17951 9.38652 0.717594C9.17143 0.48992 8.91194 0.308774 8.62408 0.185351C8.33621 0.0619284 8.0261 -0.00114944 7.71289 1.58558e-05C6.5957 1.58558e-05 5.60742 0.751969 5.31094 1.82834L3.46543 8.50998H0.6875C0.307227 8.50998 0 8.8172 0 9.19748V17.0178C0 17.3981 0.307227 17.7053 0.6875 17.7053H13.6061C13.8037 17.7053 13.9971 17.6666 14.1754 17.5893C15.198 17.1531 15.8576 16.1541 15.8576 15.0455C15.8576 14.7748 15.8189 14.5084 15.7416 14.2506C16.1025 13.7736 16.3023 13.1893 16.3023 12.5813C16.3023 12.3106 16.2637 12.0442 16.1863 11.7863C16.5473 11.3094 16.7471 10.725 16.7471 10.117C16.7428 9.84631 16.7041 9.57775 16.6268 9.31994ZM1.54688 16.1584V10.0569H3.28711V16.1584H1.54688ZM15.2195 8.57443L14.749 8.98263L15.0477 9.52834C15.146 9.7081 15.1971 9.90994 15.1959 10.1149C15.1959 10.4694 15.0412 10.8067 14.7748 11.0387L14.3043 11.4469L14.6029 11.9926C14.7013 12.1724 14.7523 12.3742 14.7512 12.5791C14.7512 12.9336 14.5965 13.2709 14.3301 13.5029L13.8596 13.9111L14.1582 14.4569C14.2566 14.6366 14.3076 14.8385 14.3064 15.0434C14.3064 15.5246 14.0229 15.9586 13.5846 16.1563H4.66211V9.9881L6.7998 2.24298C6.85493 2.04447 6.97326 1.86933 7.13686 1.74411C7.30046 1.61889 7.50042 1.5504 7.70645 1.54904C7.86973 1.54904 8.03086 1.59631 8.15977 1.69298C8.37246 1.85197 8.48633 2.09259 8.47344 2.34826L8.26719 6.61076H15.0219C15.4043 6.84494 15.6406 7.24025 15.6406 7.6506C15.6406 8.00509 15.4859 8.34025 15.2195 8.57443Z" fill="black"/>
</svg>
